<svg width="48" height="48" viewBox="0 0 48 48" fill="none" xmlns="http://www.w3.org/2000/svg">
<rect width="48" height="48" rx="8" fill="#1773EA" fill-opacity="0.08"/>
<path d="M23.9344 23.5032C23.918 23.4728 23.9016 23.4587 23.8828 23.4564C23.8148 23.5337 23.8313 24.1946 23.9461 24.6611C24.0398 24.3423 24.0563 23.7118 23.9344 23.5032ZM23.8969 26.3275C23.7164 26.7962 23.4563 27.4361 23.1445 28.0009C23.2383 27.9634 23.3344 27.9236 23.4328 27.8837C23.8453 27.715 24.307 27.5251 24.8133 27.4103C24.4641 27.1337 24.1477 26.7611 23.8969 26.3275Z" fill="#E6F7FF"/>
<path d="M24.5156 20.25V15.1875H17.4375V32.8125H30.5625V21.2344H25.5C25.2389 21.2344 24.9885 21.1307 24.8039 20.9461C24.6193 20.7615 24.5156 20.5111 24.5156 20.25ZM25.8047 26.9906C26.182 26.9461 26.5219 26.925 26.843 26.9367C27.143 26.9461 27.3961 26.9836 27.593 27.0563C27.5977 27.0586 27.6 27.0586 27.6047 27.0609C27.6141 27.0656 27.6234 27.068 27.6328 27.0727C27.6445 27.0773 27.6586 27.082 27.6703 27.0891C27.6727 27.0914 27.6773 27.0914 27.6797 27.0938C27.7758 27.1359 27.8555 27.1875 27.9164 27.2484C28.1297 27.4617 28.193 27.8602 28.0617 28.1766C27.9867 28.357 27.7875 28.657 27.2812 28.657C26.7703 28.657 26.018 28.4297 25.357 28.0758C24.7594 28.1766 24.0984 28.4016 23.4609 28.6172C23.325 28.6641 23.1844 28.7109 23.0484 28.7555C22.1578 30.2836 21.4898 30.6164 21.0773 30.6164C20.9789 30.6164 20.8945 30.5953 20.8242 30.5695C20.6625 30.5086 20.5242 30.382 20.4375 30.218C20.4164 30.1781 20.4 30.1383 20.3859 30.0961C20.3484 29.9836 20.3367 29.8711 20.3555 29.7773L20.3695 29.7141C20.3719 29.7094 20.3719 29.7047 20.3742 29.7C20.3789 29.6836 20.3836 29.6672 20.3906 29.6508C20.3906 29.6484 20.393 29.6461 20.393 29.6437C20.4891 29.3648 20.7117 29.0953 21.0422 28.8328C21.3305 28.6031 21.6773 28.3945 22.118 28.1672C22.4906 27.5109 22.9992 26.407 23.318 25.65C23.0648 24.6703 22.9266 23.9016 23.0813 23.3391C23.1023 23.2617 23.1398 23.1891 23.1891 23.1258C23.1937 23.1211 23.1961 23.1164 23.2008 23.1117C23.2031 23.1094 23.2031 23.107 23.2055 23.107C23.3531 22.9312 23.6016 22.8281 23.8641 22.8375C24.2531 22.8539 24.5602 23.107 24.6375 23.543C24.6773 23.7305 24.6891 23.9297 24.682 24.1453V24.1617C24.682 24.1734 24.682 24.1852 24.6797 24.1969C24.6633 24.5086 24.6094 24.8203 24.5086 25.2445C24.4992 25.282 24.4898 25.3195 24.4805 25.3664L24.457 25.4625L24.4547 25.4695C24.457 25.4742 24.457 25.4766 24.4594 25.4813L24.5016 25.5867C24.5039 25.5938 24.5086 25.6031 24.5109 25.6102C24.5273 25.6477 24.5438 25.6875 24.5602 25.7227V25.725C24.7641 26.1656 25.0219 26.5078 25.3547 26.782C25.4555 26.8641 25.5633 26.9391 25.6805 27.0117C25.7227 27 25.7625 26.9953 25.8047 26.9906Z" fill="#E6F7FF"/>
<path d="M21.1758 29.836C21.3094 29.7328 21.5555 29.4961 21.8812 29.0227C21.6398 29.243 21.3328 29.5477 21.1758 29.836ZM27.525 27.8907L27.5297 27.8836H27.5344C27.5484 27.8743 27.5461 27.8672 27.5437 27.8625C27.5414 27.8602 27.4383 27.6446 26.4867 27.6891C27.314 28.0149 27.5062 27.9024 27.525 27.8907Z" fill="#E6F7FF"/>
<path d="M32.0297 18.7641L26.9859 13.7203C26.8453 13.5797 26.6555 13.5 26.4562 13.5H16.5C16.0852 13.5 15.75 13.8352 15.75 14.25V33.75C15.75 34.1648 16.0852 34.5 16.5 34.5H31.5C31.9148 34.5 32.25 34.1648 32.25 33.75V19.2961C32.25 19.0969 32.1703 18.9047 32.0297 18.7641ZM26.1094 15.2297L30.5203 19.6406H26.1094V15.2297ZM30.5625 32.8125H17.4375V15.1875H24.5156V20.25C24.5156 20.5111 24.6193 20.7615 24.8039 20.9461C24.9885 21.1307 25.2389 21.2344 25.5 21.2344H30.5625V32.8125Z" fill="#1773EA"/>
<path d="M24.5603 25.7181C24.5415 25.6783 24.5251 25.6408 24.5087 25.6033C24.5064 25.5962 24.5017 25.5869 24.4993 25.5798L24.4572 25.4744C24.4548 25.4697 24.4548 25.4673 24.4525 25.4626L24.4548 25.4556L24.4595 25.4298C24.5533 25.0478 24.6611 24.6025 24.6798 24.1548V24.1384C24.6868 23.9369 24.6751 23.7353 24.6329 23.5384C24.5439 23.0392 24.1759 22.8447 23.8618 22.8306C23.597 22.8189 23.3509 22.9244 23.2033 23.0978C23.2009 23.1001 23.2009 23.1025 23.1986 23.1025C23.1939 23.1072 23.1892 23.1119 23.1868 23.1165C23.1376 23.1798 23.1001 23.2525 23.079 23.3298C22.9244 23.8923 23.0626 24.6611 23.3158 25.6408C22.997 26.4001 22.4884 27.5017 22.1158 28.158V28.1603C21.4665 28.4955 20.6134 28.9994 20.3908 29.6345C20.3908 29.6369 20.3884 29.6392 20.3884 29.6416C20.3837 29.658 20.3767 29.6744 20.372 29.6908C20.3697 29.6955 20.3697 29.7002 20.3673 29.7048C20.3626 29.7259 20.3556 29.747 20.3533 29.7681C20.3322 29.8619 20.3439 29.9744 20.3837 30.0869C20.3978 30.1291 20.4142 30.1689 20.4353 30.2088C20.522 30.3728 20.6603 30.4994 20.822 30.5603C20.8923 30.5861 20.9767 30.6072 21.0751 30.6072C21.4876 30.6072 22.1556 30.2744 23.0462 28.7462C23.1822 28.7017 23.3228 28.6548 23.4587 28.608C24.0962 28.3923 24.7572 28.1673 25.3548 28.0666C26.0157 28.4205 26.7681 28.6478 27.279 28.6478C27.7853 28.6478 27.9845 28.3478 28.0595 28.1673C28.1907 27.8509 28.1275 27.4525 27.9142 27.2392C27.8532 27.1783 27.7736 27.1267 27.6775 27.0845C27.6751 27.0822 27.6704 27.0822 27.6681 27.0798C27.6564 27.0751 27.6423 27.0705 27.6306 27.0634C27.6212 27.0587 27.6118 27.0564 27.6025 27.0517C27.5978 27.0494 27.5954 27.0494 27.5907 27.047C27.2111 26.9111 26.6134 26.89 25.8025 26.9814L25.6782 26.9955C25.5611 26.9251 25.4533 26.8478 25.3525 26.7658C25.0197 26.5009 24.7642 26.1611 24.5603 25.7181ZM21.1759 29.8361C21.3329 29.5478 21.64 29.2431 21.8814 29.0228C21.5556 29.4962 21.3095 29.733 21.1759 29.8361ZM23.8829 23.4564C23.9017 23.4587 23.9181 23.4728 23.9345 23.5033C24.0564 23.7119 24.04 24.3423 23.9462 24.6611C23.8314 24.1947 23.815 23.5337 23.8829 23.4564ZM23.4329 27.8837C23.3345 27.9236 23.2384 27.9634 23.1447 28.0009C23.4564 27.4361 23.7165 26.7962 23.897 26.3275C24.1478 26.7611 24.4642 27.1337 24.8134 27.4103C24.3072 27.5251 23.8454 27.715 23.4329 27.8837ZM27.5439 27.8626C27.5462 27.8673 27.5486 27.8744 27.5345 27.8837H27.5298L27.5251 27.8908C27.5064 27.9025 27.3142 28.015 26.4868 27.6892C27.4384 27.6447 27.5415 27.8603 27.5439 27.8626Z" fill="#1773EA"/>
</svg>
