<svg width="114" height="16" viewBox="0 0 114 16" fill="none" xmlns="http://www.w3.org/2000/svg">
<path d="M24.9412 11.3544C25.4419 11.7705 26.0539 11.9646 26.8327 11.9646C27.5281 11.9646 28.0566 11.8259 28.5017 11.5208C28.9189 11.2157 29.1415 10.7996 29.1415 10.2725C29.1415 9.88416 29.0302 9.57902 28.7798 9.3571C28.5573 9.13519 28.2513 8.96875 27.8897 8.85779C27.5281 8.74683 27.0274 8.63587 26.3877 8.52491C25.3863 8.35847 24.6074 8.08108 23.9955 7.69272C23.4113 7.30436 23.1053 6.66635 23.1053 5.80641C23.1053 5.25162 23.2444 4.7523 23.5226 4.30847C23.8007 3.86463 24.218 3.53175 24.7187 3.30984C25.2194 3.08792 25.8313 2.94922 26.4989 2.94922C27.1943 2.94922 27.8341 3.08792 28.3626 3.33758C28.8911 3.58723 29.3362 3.94785 29.6421 4.41943C29.9481 4.891 30.1428 5.41806 30.1707 6.00059H28.9467C28.8633 5.41806 28.6129 4.94648 28.1679 4.6136C27.7228 4.25299 27.1665 4.08655 26.4989 4.08655C25.8313 4.08655 25.3028 4.22525 24.9134 4.53038C24.524 4.80778 24.3293 5.22388 24.3293 5.75093C24.3293 6.13929 24.4405 6.41669 24.663 6.63861C24.8856 6.86053 25.1916 6.99922 25.5532 7.11018C25.9148 7.22114 26.4155 7.3321 27.0274 7.44306C28.0288 7.6095 28.8355 7.8869 29.4196 8.27525C30.0316 8.66361 30.3097 9.30162 30.3097 10.1616C30.3097 10.7164 30.1707 11.2434 29.8647 11.6872C29.5587 12.1311 29.1415 12.4917 28.6129 12.7136C28.0844 12.9633 27.4725 13.0742 26.7771 13.0742C25.9982 13.0742 25.3306 12.9355 24.7465 12.6581C24.1624 12.3807 23.7173 11.9924 23.4113 11.4653C23.1053 10.966 22.9106 10.3835 22.8828 9.71772H24.1067C24.1624 10.4112 24.4405 10.9383 24.9412 11.3544Z" fill="#1C1C1C"/>
<path d="M38.2641 8.93591V12.9859H37.0958V9.01913C37.0958 8.27016 36.9289 7.68762 36.5951 7.29927C36.2614 6.91091 35.7607 6.71673 35.1209 6.71673C34.4533 6.71673 33.9248 6.96639 33.5075 7.43797C33.1181 7.90954 32.9234 8.54756 32.9234 9.37975V13.0137H31.7551V3.02734H32.9234V6.91091C33.1738 6.52255 33.4797 6.21742 33.8692 5.9955C34.2586 5.74584 34.7593 5.63488 35.3156 5.63488C36.2057 5.63488 36.9011 5.91228 37.4574 6.43934C37.986 6.96639 38.2641 7.79858 38.2641 8.93591Z" fill="#1C1C1C"/>
<path d="M46.5546 12.9909H45.9148C45.4419 12.9909 45.1081 12.9076 44.9134 12.7135C44.7187 12.5193 44.6074 12.2419 44.6074 11.8813C44.0511 12.6857 43.2444 13.1018 42.1596 13.1018C41.3529 13.1018 40.7132 12.9076 40.2125 12.547C39.7118 12.1864 39.4893 11.6594 39.4893 10.9936C39.4893 10.2724 39.7396 9.71758 40.2403 9.32922C40.741 8.94086 41.4642 8.74669 42.41 8.74669H44.5518V8.24737C44.5518 7.77579 44.3849 7.41518 44.0789 7.13778C43.773 6.86038 43.3279 6.74942 42.7438 6.74942C42.2431 6.74942 41.8258 6.86038 41.492 7.0823C41.1582 7.30422 40.9635 7.60936 40.8801 7.96997H39.7118C39.7952 7.24874 40.1012 6.69394 40.6575 6.30559C41.2139 5.91723 41.9093 5.69531 42.7994 5.69531C43.7173 5.69531 44.4405 5.91723 44.969 6.36107C45.4976 6.8049 45.7201 7.47066 45.7201 8.30285V11.4374C45.7201 11.7981 45.887 11.9645 46.193 11.9645H46.5546V12.9909ZM42.2987 9.68984C41.2139 9.68984 40.6854 10.1059 40.6854 10.9104C40.6854 11.271 40.8244 11.5484 41.1026 11.7703C41.3808 11.9922 41.7702 12.1032 42.2709 12.1032C42.9941 12.1032 43.5504 11.909 43.9398 11.5484C44.3571 11.1878 44.5518 10.6885 44.5518 10.0505V9.68984H42.2987Z" fill="#1C1C1C"/>
<path d="M47.9453 4.91365C47.9453 4.27563 48.0844 3.80406 48.3903 3.49892C48.6963 3.19378 49.1692 3.02734 49.8368 3.02734H51.172V4.08145H49.8924C49.6143 4.08145 49.3917 4.13693 49.2805 4.27563C49.1692 4.38659 49.0857 4.60851 49.0857 4.88591V5.7181H51.1441V6.77221H49.0857V12.9582H47.9175V6.79995H46.6101V5.74584H47.9175V4.91365H47.9453Z" fill="#1C1C1C"/>
<path d="M53.8434 3.02734H55.1786V4.08145H53.899C53.6209 4.08145 53.3983 4.13693 53.2871 4.27563C53.1758 4.38659 53.0924 4.60851 53.0924 4.88591V5.7181H55.1508V6.77221H53.1202V12.9582H51.9519V4.91365C51.9519 4.27563 52.091 3.80406 52.397 3.49892C52.7029 3.19378 53.1758 3.02734 53.8434 3.02734Z" fill="#1C1C1C"/>
<path d="M55.8166 11.3034C55.5107 10.7486 55.3716 10.1106 55.3716 9.36166C55.3716 8.64043 55.5107 7.97467 55.8166 7.41988C56.1226 6.86508 56.5399 6.42124 57.0962 6.11611C57.6525 5.81097 58.2645 5.64453 58.9599 5.64453C59.6553 5.64453 60.295 5.81097 60.8236 6.11611C61.3799 6.42124 61.7971 6.86508 62.1031 7.41988C62.4091 7.97467 62.5482 8.61269 62.5482 9.36166C62.5482 10.0829 62.4091 10.7486 62.1031 11.3034C61.7971 11.8582 61.3799 12.3021 60.8236 12.6072C60.2672 12.9124 59.6553 13.0788 58.9599 13.0788C58.2645 13.0788 57.6247 12.9124 57.0962 12.6072C56.5399 12.3021 56.1226 11.8582 55.8166 11.3034ZM61.0739 10.7486C61.2686 10.3326 61.3799 9.88872 61.3799 9.36166C61.3799 8.86234 61.2686 8.39077 61.0739 7.97467C60.8792 7.55858 60.601 7.25344 60.2394 7.03152C59.8778 6.8096 59.4606 6.69864 58.9877 6.69864C58.5148 6.69864 58.0976 6.8096 57.736 7.03152C57.3743 7.25344 57.0962 7.58632 56.9015 7.97467C56.7068 8.36303 56.5955 8.8346 56.5955 9.36166C56.5955 9.86098 56.7068 10.3326 56.9015 10.7486C57.0962 11.1647 57.3743 11.4699 57.736 11.6918C58.0976 11.9137 58.5148 12.0247 58.9877 12.0247C59.4606 12.0247 59.8778 11.9137 60.2394 11.6918C60.601 11.4699 60.8792 11.1647 61.0739 10.7486Z" fill="#1C1C1C"/>
<path d="M64.3003 4.91365C64.3003 4.27563 64.4393 3.80406 64.7453 3.49892C65.0513 3.19378 65.5242 3.02734 66.1918 3.02734H67.5269V4.08145H66.2474C65.9692 4.08145 65.7467 4.13693 65.6354 4.27563C65.5242 4.38659 65.4407 4.60851 65.4407 4.88591V5.7181H67.4991V6.77221H65.4407V12.9582H64.2725V6.79995H62.9651V5.74584H64.2725V4.91365H64.3003Z" fill="#1C1C1C"/>
<path d="M78.2657 12.9914H77.3478C76.9862 12.9914 76.6802 12.9359 76.4576 12.825C76.2351 12.714 76.0126 12.5476 75.8457 12.2979L75.7344 12.1592C74.9278 12.7695 73.982 13.0746 72.8972 13.0746C71.9792 13.0746 71.1448 12.8527 70.4215 12.4089C69.6983 11.965 69.142 11.3825 68.7248 10.6058C68.3075 9.82908 68.1128 8.96914 68.1128 7.99825C68.1128 7.02736 68.3075 6.16743 68.7248 5.39071C69.142 4.614 69.6983 4.03147 70.4215 3.58763C71.1448 3.14379 71.9792 2.92188 72.8972 2.92188C73.8151 2.92188 74.6496 3.14379 75.3728 3.58763C76.096 4.03147 76.6524 4.614 77.0696 5.39071C77.4869 6.16743 77.6816 7.02736 77.6816 7.99825C77.6816 8.66401 77.5981 9.27428 77.4034 9.82908C77.2087 10.3839 76.9305 10.9109 76.5967 11.3548C76.7358 11.5212 76.8749 11.6599 77.014 11.7431C77.1531 11.8263 77.3199 11.8541 77.5425 11.8541H78.3213V12.9914H78.2657ZM74.7331 10.8277C74.594 10.6613 74.4549 10.5226 74.3436 10.4393C74.2324 10.3561 74.0655 10.3284 73.8707 10.3284H73.0363V9.19106H74.0655C74.3992 9.19106 74.6496 9.24654 74.8721 9.3575C75.0947 9.46846 75.2894 9.6349 75.4563 9.88455L75.7622 10.3007C76.1517 9.66264 76.3742 8.88592 76.3742 7.99825C76.3742 7.24928 76.2351 6.55578 75.9291 5.97325C75.6232 5.39071 75.2337 4.91914 74.7052 4.58626C74.1767 4.25338 73.5648 4.08694 72.8972 4.08694C72.2018 4.08694 71.6176 4.25338 71.0891 4.58626C70.5606 4.91914 70.1434 5.39071 69.8652 5.97325C69.5592 6.55578 69.4202 7.24928 69.4202 7.99825C69.4202 8.74722 69.5592 9.44072 69.8652 10.0233C70.1712 10.6058 70.5606 11.0774 71.0891 11.4102C71.6176 11.7431 72.2296 11.9096 72.8972 11.9096C73.7317 11.9096 74.4271 11.6599 75.039 11.1606L74.7331 10.8277Z" fill="#1C1C1C"/>
<path d="M85.3592 12.9901H84.3578L84.1909 12.0192C83.6346 12.7127 82.8557 13.0733 81.8543 13.0733C80.992 13.0733 80.2966 12.7959 79.7681 12.2688C79.2396 11.7418 78.9893 10.9096 78.9893 9.77227V5.75H80.1575V9.71679C80.1575 10.4658 80.3244 11.0483 80.6582 11.4367C80.992 11.825 81.4649 12.0192 82.049 12.0192C82.7166 12.0192 83.2451 11.7695 83.6067 11.298C83.9684 10.8264 84.1631 10.1884 84.1631 9.35617V5.75H85.3313V12.9901H85.3592Z" fill="#1C1C1C"/>
<path d="M90.6444 6.88773H90.0602C89.3648 6.88773 88.8641 7.10964 88.5582 7.58122C88.2522 8.0528 88.1131 8.60759 88.1131 9.30109V12.9905H86.9448V5.7504H87.9462L88.1131 6.83225C88.3356 6.49937 88.586 6.22197 88.9198 6.02779C89.2536 5.83362 89.7264 5.72266 90.3106 5.72266H90.6444V6.88773Z" fill="#1C1C1C"/>
<path d="M93.0348 3.69819C93.0348 3.92011 92.9513 4.08655 92.8123 4.22525C92.6732 4.36395 92.4785 4.44717 92.2837 4.44717C92.089 4.44717 91.8943 4.36395 91.7552 4.22525C91.6162 4.08655 91.5327 3.89237 91.5327 3.69819C91.5327 3.50401 91.6162 3.30984 91.7552 3.17114C91.8943 3.03244 92.089 2.94922 92.2837 2.94922C92.4785 2.94922 92.6732 3.03244 92.8123 3.17114C92.9792 3.30984 93.0348 3.47627 93.0348 3.69819ZM92.8679 5.75094V12.991H91.6996V5.75094H92.8679Z" fill="#1C1C1C"/>
<path d="M95.6507 3.02734V12.9859H94.4824V3.02734H95.6507Z" fill="#1C1C1C"/>
<path d="M98.5707 3.69819C98.5707 3.92011 98.4872 4.08655 98.3481 4.22525C98.2091 4.36395 98.0144 4.44717 97.8196 4.44717C97.6249 4.44717 97.4302 4.36395 97.2911 4.22525C97.152 4.08655 97.0686 3.89237 97.0686 3.69819C97.0686 3.50401 97.152 3.30984 97.2911 3.17114C97.4302 3.03244 97.6249 2.94922 97.8196 2.94922C98.0144 2.94922 98.2091 3.03244 98.3481 3.17114C98.515 3.30984 98.5707 3.47627 98.5707 3.69819ZM98.4038 5.75094V12.991H97.2355V5.75094H98.4038Z" fill="#1C1C1C"/>
<path d="M101.49 11.6641C101.852 11.9415 102.325 12.0802 102.909 12.0802C103.41 12.0802 103.827 11.9692 104.161 11.775C104.467 11.5808 104.634 11.3034 104.634 10.9706C104.634 10.6932 104.55 10.4712 104.411 10.3048C104.272 10.1661 104.049 10.0552 103.827 9.99967C103.576 9.94419 103.243 9.88872 102.798 9.83324C102.158 9.75002 101.657 9.6668 101.268 9.5281C100.878 9.3894 100.545 9.19522 100.294 8.94556C100.044 8.66817 99.9326 8.30755 99.9326 7.83597C99.9326 7.41988 100.044 7.03152 100.294 6.69864C100.545 6.36577 100.878 6.11611 101.296 5.92193C101.713 5.72775 102.186 5.64453 102.714 5.64453C103.576 5.64453 104.272 5.83871 104.8 6.25481C105.329 6.64316 105.635 7.2257 105.691 7.94693H104.522C104.467 7.55858 104.3 7.25344 103.966 7.00378C103.632 6.75412 103.243 6.64316 102.742 6.64316C102.241 6.64316 101.852 6.75412 101.546 6.9483C101.24 7.14248 101.101 7.41988 101.101 7.75275C101.101 8.00241 101.184 8.19659 101.323 8.30755C101.462 8.41851 101.657 8.52947 101.88 8.58495C102.102 8.64043 102.436 8.69591 102.909 8.75138C103.549 8.8346 104.077 8.91782 104.494 9.05652C104.912 9.19522 105.245 9.3894 105.496 9.69454C105.746 9.99967 105.885 10.388 105.885 10.8873C105.885 11.3312 105.746 11.7195 105.496 12.0524C105.245 12.3853 104.884 12.635 104.467 12.8291C104.049 13.0233 103.549 13.1065 103.02 13.1065C102.074 13.1065 101.296 12.8846 100.739 12.4408C100.155 11.9969 99.8769 11.3867 99.8491 10.6099H101.017C100.934 11.0538 101.129 11.3867 101.49 11.6641Z" fill="#1C1C1C"/>
<path d="M113.619 8.93591V12.9859H112.451V9.01913C112.451 8.27016 112.284 7.68762 111.95 7.29927C111.617 6.91091 111.116 6.71673 110.476 6.71673C109.809 6.71673 109.28 6.96639 108.863 7.43797C108.473 7.90954 108.279 8.54756 108.279 9.37975V13.0137H107.11V3.02734H108.279V6.91091C108.529 6.52255 108.835 6.21742 109.224 5.9955C109.614 5.74584 110.114 5.63488 110.671 5.63488C111.561 5.63488 112.256 5.91228 112.813 6.43934C113.369 6.96639 113.619 7.79858 113.619 8.93591Z" fill="#1C1C1C"/>
<path d="M2.74121 2.75983L2.74121 0.429688L0.404652 0.429687L0.404652 2.75983L2.74121 2.75983Z" fill="#007AFF"/>
<path d="M15.6167 2.75983V0.429688L13.2801 0.429687V2.75983L15.6167 2.75983Z" fill="#007AFF"/>
<path d="M9.59644 3.16233V0L6.42539 0V3.16233L9.59644 3.16233Z" fill="#007AFF"/>
<path d="M3.1709 9.59593L3.1709 6.43359L-0.000148058 6.43359L-0.000148058 9.59593H3.1709Z" fill="#007AFF"/>
<path d="M16.0464 9.59983V6.4375L12.8753 6.4375V9.59983H16.0464Z" fill="#007AFF"/>
<path d="M9.60938 9.5803V6.41797L6.43833 6.41797V9.5803H9.60938Z" fill="#007AFF"/>
<path d="M2.7373 15.5997L2.7373 13.2695H0.400745L0.400745 15.5997H2.7373Z" fill="#007AFF"/>
<path d="M15.6155 15.5997V13.2695H13.2789V15.5997H15.6155Z" fill="#007AFF"/>
<path d="M9.59375 15.9983V12.8359H6.4227V15.9983H9.59375Z" fill="#007AFF"/>
<path d="M14.2605 7.9967L8.05748 1.83847L1.88228 7.9967L1.38159 7.49738L8.05748 0.839844L14.7612 7.49738L14.2605 7.9967Z" fill="#007AFF"/>
<path d="M14.2058 14.6807L8.00279 8.52247L1.8276 14.6807L1.3269 14.1814L8.00279 7.49609L14.7065 14.1814L14.2058 14.6807Z" fill="#007AFF"/>
</svg>
